<svg width="359" height="56" viewBox="0 0 359 56" fill="none" xmlns="http://www.w3.org/2000/svg">
<rect width="159" height="56" rx="4" fill="#E5ECF4"/>
<g clip-path="url(#clip0_102_4626)">
<path d="M60.5 40H55.74L55.06 43H52.3L55.64 29H60.6L63.94 43H61.18L60.5 40ZM56.3 37.48H59.92L58.3 30.32H57.94L56.3 37.48ZM66.9132 47H64.3932V33.08H66.9132V34.52H67.2732C67.5399 33.9733 67.9266 33.5533 68.4332 33.26C68.9399 32.9533 69.5866 32.8 70.3732 32.8C70.9599 32.8 71.5132 32.9133 72.0332 33.14C72.5666 33.3667 73.0266 33.7 73.4132 34.14C73.8132 34.5667 74.1266 35.0933 74.3532 35.72C74.5932 36.3467 74.7132 37.06 74.7132 37.86V38.22C74.7132 39.0333 74.5999 39.7533 74.3732 40.38C74.1466 41.0067 73.8399 41.54 73.4532 41.98C73.0666 42.4067 72.6066 42.7333 72.0732 42.96C71.5532 43.1733 70.9866 43.28 70.3732 43.28C69.9199 43.28 69.5266 43.2333 69.1932 43.14C68.8599 43.0467 68.5666 42.92 68.3132 42.76C68.0732 42.6 67.8666 42.42 67.6932 42.22C67.5332 42.0067 67.3932 41.7867 67.2732 41.56H66.9132V47ZM69.5532 40.88C70.3399 40.88 70.9732 40.64 71.4532 40.16C71.9466 39.6667 72.1932 39 72.1932 38.16V37.92C72.1932 37.08 71.9466 36.42 71.4532 35.94C70.9732 35.4467 70.3399 35.2 69.5532 35.2C68.7666 35.2 68.1266 35.4533 67.6332 35.96C67.1532 36.4533 66.9132 37.1067 66.9132 37.92V38.16C66.9132 38.9733 67.1532 39.6333 67.6332 40.14C68.1266 40.6333 68.7666 40.88 69.5532 40.88ZM78.2665 47H75.7465V33.08H78.2665V34.52H78.6265C78.8931 33.9733 79.2798 33.5533 79.7865 33.26C80.2931 32.9533 80.9398 32.8 81.7265 32.8C82.3131 32.8 82.8665 32.9133 83.3865 33.14C83.9198 33.3667 84.3798 33.7 84.7665 34.14C85.1665 34.5667 85.4798 35.0933 85.7065 35.72C85.9465 36.3467 86.0665 37.06 86.0665 37.86V38.22C86.0665 39.0333 85.9531 39.7533 85.7265 40.38C85.4998 41.0067 85.1931 41.54 84.8065 41.98C84.4198 42.4067 83.9598 42.7333 83.4265 42.96C82.9065 43.1733 82.3398 43.28 81.7265 43.28C81.2731 43.28 80.8798 43.2333 80.5465 43.14C80.2131 43.0467 79.9198 42.92 79.6665 42.76C79.4265 42.6 79.2198 42.42 79.0465 42.22C78.8865 42.0067 78.7465 41.7867 78.6265 41.56H78.2665V47ZM80.9065 40.88C81.6931 40.88 82.3265 40.64 82.8065 40.16C83.2998 39.6667 83.5465 39 83.5465 38.16V37.92C83.5465 37.08 83.2998 36.42 82.8065 35.94C82.3265 35.4467 81.6931 35.2 80.9065 35.2C80.1198 35.2 79.4798 35.4533 78.9865 35.96C78.5065 36.4533 78.2665 37.1067 78.2665 37.92V38.16C78.2665 38.9733 78.5065 39.6333 78.9865 40.14C79.4798 40.6333 80.1198 40.88 80.9065 40.88ZM94.5797 33.28C94.5797 32.72 94.3597 32.2333 93.9197 31.82C93.493 31.4067 92.8864 31.2 92.0997 31.2C91.433 31.2 90.9064 31.34 90.5197 31.62C90.133 31.8867 89.9397 32.2533 89.9397 32.72C89.9397 32.96 89.9864 33.18 90.0797 33.38C90.173 33.5667 90.333 33.74 90.5597 33.9C90.7997 34.0467 91.1064 34.18 91.4797 34.3C91.8664 34.42 92.353 34.5333 92.9397 34.64C94.4064 34.9067 95.5264 35.3533 96.2997 35.98C97.073 36.6067 97.4597 37.5333 97.4597 38.76V39C97.4597 39.6533 97.3397 40.2467 97.0997 40.78C96.873 41.3 96.5397 41.7467 96.0997 42.12C95.6597 42.4933 95.1264 42.78 94.4997 42.98C93.873 43.18 93.1664 43.28 92.3797 43.28C91.4597 43.28 90.6464 43.1533 89.9397 42.9C89.2464 42.6333 88.6664 42.2733 88.1997 41.82C87.733 41.3533 87.3797 40.8133 87.1397 40.2C86.8997 39.5733 86.7797 38.8933 86.7797 38.16V37.56H89.4197V38.04C89.4197 38.88 89.6597 39.5533 90.1397 40.06C90.633 40.5533 91.393 40.8 92.4197 40.8C93.2197 40.8 93.813 40.6267 94.1997 40.28C94.5864 39.9333 94.7797 39.52 94.7797 39.04C94.7797 38.8133 94.7397 38.6 94.6597 38.4C94.5797 38.1867 94.4397 38 94.2397 37.84C94.0397 37.6667 93.7664 37.5133 93.4197 37.38C93.073 37.2467 92.633 37.1333 92.0997 37.04C91.393 36.92 90.7464 36.7667 90.1597 36.58C89.573 36.38 89.0597 36.12 88.6197 35.8C88.193 35.48 87.8597 35.08 87.6197 34.6C87.3797 34.12 87.2597 33.5333 87.2597 32.84V32.72C87.2597 32.1467 87.373 31.62 87.5997 31.14C87.8397 30.6467 88.1664 30.22 88.5797 29.86C89.0064 29.5 89.513 29.22 90.0997 29.02C90.6997 28.82 91.3664 28.72 92.0997 28.72C92.9264 28.72 93.6597 28.84 94.2997 29.08C94.9397 29.3067 95.473 29.62 95.8997 30.02C96.3397 30.42 96.6664 30.88 96.8797 31.4C97.1064 31.92 97.2197 32.4667 97.2197 33.04V33.76H94.5797V33.28ZM98.6929 33.08H101.633V29H104.153V33.08H107.733V35.48H104.153V40C104.153 40.4 104.333 40.6 104.693 40.6H107.373V43H103.173C102.72 43 102.346 42.8533 102.053 42.56C101.773 42.2667 101.633 41.8933 101.633 41.44V35.48H98.6929V33.08ZM120.046 38.16C120.046 38.9867 119.906 39.72 119.626 40.36C119.346 40.9867 118.966 41.52 118.486 41.96C118.006 42.3867 117.453 42.7133 116.826 42.94C116.213 43.1667 115.566 43.28 114.886 43.28C114.206 43.28 113.553 43.1667 112.926 42.94C112.313 42.7133 111.766 42.3867 111.286 41.96C110.806 41.52 110.426 40.9867 110.146 40.36C109.866 39.72 109.726 38.9867 109.726 38.16V37.92C109.726 37.1067 109.866 36.3867 110.146 35.76C110.426 35.12 110.806 34.58 111.286 34.14C111.766 33.7 112.313 33.3667 112.926 33.14C113.553 32.9133 114.206 32.8 114.886 32.8C115.566 32.8 116.213 32.9133 116.826 33.14C117.453 33.3667 118.006 33.7 118.486 34.14C118.966 34.58 119.346 35.12 119.626 35.76C119.906 36.3867 120.046 37.1067 120.046 37.92V38.16ZM114.886 40.88C115.246 40.88 115.586 40.82 115.906 40.7C116.226 40.58 116.506 40.4067 116.746 40.18C116.986 39.9533 117.173 39.68 117.306 39.36C117.453 39.0267 117.526 38.6533 117.526 38.24V37.84C117.526 37.4267 117.453 37.06 117.306 36.74C117.173 36.4067 116.986 36.1267 116.746 35.9C116.506 35.6733 116.226 35.5 115.906 35.38C115.586 35.26 115.246 35.2 114.886 35.2C114.526 35.2 114.186 35.26 113.866 35.38C113.546 35.5 113.266 35.6733 113.026 35.9C112.786 36.1267 112.593 36.4067 112.446 36.74C112.313 37.06 112.246 37.4267 112.246 37.84V38.24C112.246 38.6533 112.313 39.0267 112.446 39.36C112.593 39.68 112.786 39.9533 113.026 40.18C113.266 40.4067 113.546 40.58 113.866 40.7C114.186 40.82 114.526 40.88 114.886 40.88ZM121.199 33.08H125.399V34.52H125.759C125.946 33.9733 126.259 33.5533 126.699 33.26C127.153 32.9533 127.693 32.8 128.319 32.8C129.306 32.8 130.099 33.1133 130.699 33.74C131.299 34.3533 131.599 35.2933 131.599 36.56V37L128.999 37.24V36.96C128.999 36.4133 128.859 35.98 128.579 35.66C128.299 35.3267 127.879 35.16 127.319 35.16C126.759 35.16 126.319 35.3533 125.999 35.74C125.679 36.1267 125.519 36.68 125.519 37.4V40.6H127.799V43H120.959V40.6H122.999V35.48H121.199V33.08ZM135.253 38.86C135.266 39.1533 135.333 39.4267 135.453 39.68C135.586 39.92 135.759 40.1333 135.973 40.32C136.199 40.4933 136.453 40.6333 136.733 40.74C137.026 40.8333 137.333 40.88 137.653 40.88C138.279 40.88 138.759 40.7733 139.093 40.56C139.426 40.3333 139.666 40.0667 139.813 39.76L141.973 40.96C141.853 41.2133 141.686 41.48 141.473 41.76C141.259 42.0267 140.979 42.2733 140.633 42.5C140.299 42.7267 139.886 42.9133 139.393 43.06C138.913 43.2067 138.346 43.28 137.693 43.28C136.946 43.28 136.266 43.16 135.653 42.92C135.039 42.68 134.506 42.3333 134.053 41.88C133.613 41.4267 133.266 40.8733 133.013 40.22C132.773 39.5667 132.653 38.8267 132.653 38V37.88C132.653 37.12 132.779 36.4267 133.033 35.8C133.299 35.1733 133.659 34.64 134.113 34.2C134.566 33.76 135.093 33.42 135.693 33.18C136.306 32.9267 136.959 32.8 137.653 32.8C138.506 32.8 139.239 32.9533 139.853 33.26C140.466 33.5533 140.973 33.9333 141.373 34.4C141.773 34.8533 142.066 35.36 142.253 35.92C142.439 36.4667 142.533 37 142.533 37.52V38.86H135.253ZM137.633 35.08C136.993 35.08 136.473 35.2467 136.073 35.58C135.673 35.9 135.413 36.2733 135.293 36.7H139.973C139.893 36.2333 139.639 35.8467 139.213 35.54C138.799 35.2333 138.273 35.08 137.633 35.08Z" fill="#495567"/>
<path d="M56.25 17.5H53.87L53.53 19H52.15L53.82 12H56.3L57.97 19H56.59L56.25 17.5ZM54.15 16.24H55.96L55.15 12.66H54.97L54.15 16.24ZM58.1066 14.04H59.4666L60.6366 18.4H60.8166L61.9866 14.04H63.3466L61.9266 19H59.5266L58.1066 14.04ZM67.3432 18.28C67.2099 18.5933 67.0232 18.8167 66.7832 18.95C66.5432 19.0767 66.2632 19.14 65.9432 19.14C65.6432 19.14 65.3599 19.0833 65.0932 18.97C64.8332 18.8567 64.6032 18.69 64.4032 18.47C64.2032 18.25 64.0432 17.9833 63.9232 17.67C63.8099 17.3567 63.7532 17 63.7532 16.6V16.44C63.7532 16.0467 63.8099 15.6933 63.9232 15.38C64.0366 15.0667 64.1899 14.8 64.3832 14.58C64.5766 14.36 64.7999 14.1933 65.0532 14.08C65.3132 13.96 65.5899 13.9 65.8832 13.9C66.2366 13.9 66.5199 13.96 66.7332 14.08C66.9532 14.2 67.1266 14.3867 67.2532 14.64H67.4332V14.04H68.6932V17.5C68.6932 17.7 68.7832 17.8 68.9632 17.8H69.1532V19H68.2932C68.0666 19 67.8799 18.9333 67.7332 18.8C67.5932 18.6667 67.5232 18.4933 67.5232 18.28H67.3432ZM66.2232 17.94C66.5899 17.94 66.8832 17.82 67.1032 17.58C67.3232 17.3333 67.4332 17 67.4332 16.58V16.46C67.4332 16.04 67.3232 15.71 67.1032 15.47C66.8832 15.2233 66.5899 15.1 66.2232 15.1C65.8566 15.1 65.5632 15.2233 65.3432 15.47C65.1232 15.71 65.0132 16.04 65.0132 16.46V16.58C65.0132 17 65.1232 17.3333 65.3432 17.58C65.5632 17.82 65.8566 17.94 66.2232 17.94ZM69.8999 17.8H71.5799V15.24H70.0199V14.04H72.8399V17.8H74.2799V19H69.8999V17.8ZM73.1499 12.57C73.1499 12.7033 73.1232 12.83 73.0699 12.95C73.0232 13.0633 72.9565 13.1633 72.8699 13.25C72.7832 13.33 72.6799 13.3967 72.5599 13.45C72.4465 13.4967 72.3265 13.52 72.1999 13.52C72.0665 13.52 71.9432 13.4967 71.8299 13.45C71.7165 13.3967 71.6165 13.33 71.5299 13.25C71.4432 13.1633 71.3732 13.0633 71.3199 12.95C71.2732 12.83 71.2499 12.7033 71.2499 12.57C71.2499 12.4367 71.2732 12.3133 71.3199 12.2C71.3732 12.08 71.4432 11.98 71.5299 11.9C71.6165 11.8133 71.7165 11.7467 71.8299 11.7C71.9432 11.6467 72.0665 11.62 72.1999 11.62C72.3265 11.62 72.4465 11.6467 72.5599 11.7C72.6799 11.7467 72.7832 11.8133 72.8699 11.9C72.9565 11.98 73.0232 12.08 73.0699 12.2C73.1232 12.3133 73.1499 12.4367 73.1499 12.57ZM75.4565 17.8H77.1965V13.2H75.5165V12H78.4565V17.8H80.0765V19H75.4565V17.8ZM84.3731 18.28C84.2398 18.5933 84.0531 18.8167 83.8131 18.95C83.5731 19.0767 83.2931 19.14 82.9731 19.14C82.6731 19.14 82.3898 19.0833 82.1231 18.97C81.8631 18.8567 81.6331 18.69 81.4331 18.47C81.2331 18.25 81.0731 17.9833 80.9531 17.67C80.8398 17.3567 80.7831 17 80.7831 16.6V16.44C80.7831 16.0467 80.8398 15.6933 80.9531 15.38C81.0664 15.0667 81.2198 14.8 81.4131 14.58C81.6064 14.36 81.8298 14.1933 82.0831 14.08C82.3431 13.96 82.6198 13.9 82.9131 13.9C83.2664 13.9 83.5498 13.96 83.7631 14.08C83.9831 14.2 84.1564 14.3867 84.2831 14.64H84.4631V14.04H85.7231V17.5C85.7231 17.7 85.8131 17.8 85.9931 17.8H86.1831V19H85.3231C85.0964 19 84.9098 18.9333 84.7631 18.8C84.6231 18.6667 84.5531 18.4933 84.5531 18.28H84.3731ZM83.2531 17.94C83.6198 17.94 83.9131 17.82 84.1331 17.58C84.3531 17.3333 84.4631 17 84.4631 16.58V16.46C84.4631 16.04 84.3531 15.71 84.1331 15.47C83.9131 15.2233 83.6198 15.1 83.2531 15.1C82.8864 15.1 82.5931 15.2233 82.3731 15.47C82.1531 15.71 82.0431 16.04 82.0431 16.46V16.58C82.0431 17 82.1531 17.3333 82.3731 17.58C82.5931 17.82 82.8864 17.94 83.2531 17.94ZM87.8897 19H86.6297V12H87.8897V14.76H88.0697C88.203 14.4867 88.3964 14.2767 88.6497 14.13C88.903 13.9767 89.2264 13.9 89.6197 13.9C89.913 13.9 90.1897 13.9567 90.4497 14.07C90.7164 14.1833 90.9464 14.35 91.1397 14.57C91.3397 14.7833 91.4964 15.0467 91.6097 15.36C91.7297 15.6733 91.7897 16.03 91.7897 16.43V16.61C91.7897 17.0167 91.733 17.3767 91.6197 17.69C91.5064 18.0033 91.353 18.27 91.1597 18.49C90.9664 18.7033 90.7364 18.8667 90.4697 18.98C90.2097 19.0867 89.9264 19.14 89.6197 19.14C89.393 19.14 89.1964 19.1167 89.0297 19.07C88.863 19.0233 88.7164 18.96 88.5897 18.88C88.4697 18.8 88.3664 18.71 88.2797 18.61C88.1997 18.5033 88.1297 18.3933 88.0697 18.28H87.8897V19ZM89.2097 17.94C89.603 17.94 89.9197 17.82 90.1597 17.58C90.4064 17.3333 90.5297 17 90.5297 16.58V16.46C90.5297 16.04 90.4064 15.71 90.1597 15.47C89.9197 15.2233 89.603 15.1 89.2097 15.1C88.8164 15.1 88.4964 15.2267 88.2497 15.48C88.0097 15.7267 87.8897 16.0533 87.8897 16.46V16.58C87.8897 16.9867 88.0097 17.3167 88.2497 17.57C88.4964 17.8167 88.8164 17.94 89.2097 17.94ZM92.4863 17.8H94.2263V13.2H92.5463V12H95.4863V17.8H97.1063V19H92.4863V17.8ZM99.3029 16.93C99.3096 17.0767 99.3429 17.2133 99.4029 17.34C99.4696 17.46 99.5563 17.5667 99.6629 17.66C99.7763 17.7467 99.9029 17.8167 100.043 17.87C100.19 17.9167 100.343 17.94 100.503 17.94C100.816 17.94 101.056 17.8867 101.223 17.78C101.39 17.6667 101.51 17.5333 101.583 17.38L102.663 17.98C102.603 18.1067 102.52 18.24 102.413 18.38C102.306 18.5133 102.166 18.6367 101.993 18.75C101.826 18.8633 101.62 18.9567 101.373 19.03C101.133 19.1033 100.85 19.14 100.523 19.14C100.15 19.14 99.8096 19.08 99.5029 18.96C99.1963 18.84 98.9296 18.6667 98.7029 18.44C98.4829 18.2133 98.3096 17.9367 98.1829 17.61C98.0629 17.2833 98.0029 16.9133 98.0029 16.5V16.44C98.0029 16.06 98.0663 15.7133 98.1929 15.4C98.3263 15.0867 98.5063 14.82 98.7329 14.6C98.9596 14.38 99.2229 14.21 99.5229 14.09C99.8296 13.9633 100.156 13.9 100.503 13.9C100.93 13.9 101.296 13.9767 101.603 14.13C101.91 14.2767 102.163 14.4667 102.363 14.7C102.563 14.9267 102.71 15.18 102.803 15.46C102.896 15.7333 102.943 16 102.943 16.26V16.93H99.3029ZM100.493 15.04C100.173 15.04 99.9129 15.1233 99.7129 15.29C99.5129 15.45 99.3829 15.6367 99.3229 15.85H101.663C101.623 15.6167 101.496 15.4233 101.283 15.27C101.076 15.1167 100.813 15.04 100.493 15.04ZM114.406 16.58C114.406 16.9933 114.336 17.36 114.196 17.68C114.056 17.9933 113.866 18.26 113.626 18.48C113.386 18.6933 113.11 18.8567 112.796 18.97C112.49 19.0833 112.166 19.14 111.826 19.14C111.486 19.14 111.16 19.0833 110.846 18.97C110.54 18.8567 110.266 18.6933 110.026 18.48C109.786 18.26 109.596 17.9933 109.456 17.68C109.316 17.36 109.246 16.9933 109.246 16.58V16.46C109.246 16.0533 109.316 15.6933 109.456 15.38C109.596 15.06 109.786 14.79 110.026 14.57C110.266 14.35 110.54 14.1833 110.846 14.07C111.16 13.9567 111.486 13.9 111.826 13.9C112.166 13.9 112.49 13.9567 112.796 14.07C113.11 14.1833 113.386 14.35 113.626 14.57C113.866 14.79 114.056 15.06 114.196 15.38C114.336 15.6933 114.406 16.0533 114.406 16.46V16.58ZM111.826 17.94C112.006 17.94 112.176 17.91 112.336 17.85C112.496 17.79 112.636 17.7033 112.756 17.59C112.876 17.4767 112.97 17.34 113.036 17.18C113.11 17.0133 113.146 16.8267 113.146 16.62V16.42C113.146 16.2133 113.11 16.03 113.036 15.87C112.97 15.7033 112.876 15.5633 112.756 15.45C112.636 15.3367 112.496 15.25 112.336 15.19C112.176 15.13 112.006 15.1 111.826 15.1C111.646 15.1 111.476 15.13 111.316 15.19C111.156 15.25 111.016 15.3367 110.896 15.45C110.776 15.5633 110.68 15.7033 110.606 15.87C110.54 16.03 110.506 16.2133 110.506 16.42V16.62C110.506 16.8267 110.54 17.0133 110.606 17.18C110.68 17.34 110.776 17.4767 110.896 17.59C111.016 17.7033 111.156 17.79 111.316 17.85C111.476 17.91 111.646 17.94 111.826 17.94ZM116.483 19H115.223V14.04H116.483V14.78H116.663C116.776 14.5 116.959 14.2833 117.213 14.13C117.466 13.9767 117.763 13.9 118.103 13.9C118.343 13.9 118.566 13.94 118.773 14.02C118.986 14.0933 119.173 14.21 119.333 14.37C119.493 14.53 119.616 14.7333 119.703 14.98C119.796 15.2267 119.843 15.52 119.843 15.86V19H118.583V16.18C118.583 15.8267 118.496 15.55 118.323 15.35C118.156 15.1433 117.913 15.04 117.593 15.04C117.219 15.04 116.939 15.1667 116.753 15.42C116.573 15.6667 116.483 16 116.483 16.42V19ZM126.436 14.04H127.906V12H129.166V14.04H130.956V15.24H129.166V17.5C129.166 17.7 129.256 17.8 129.436 17.8H130.776V19H128.676C128.449 19 128.263 18.9267 128.116 18.78C127.976 18.6333 127.906 18.4467 127.906 18.22V15.24H126.436V14.04ZM133.533 19H132.273V12H133.533V14.84H133.713C133.839 14.54 134.026 14.31 134.273 14.15C134.519 13.9833 134.823 13.9 135.183 13.9C135.429 13.9 135.656 13.94 135.863 14.02C136.069 14.1 136.249 14.22 136.403 14.38C136.556 14.54 136.676 14.7467 136.763 15C136.849 15.2467 136.893 15.54 136.893 15.88V19H135.633V16.18C135.633 15.8267 135.546 15.55 135.373 15.35C135.206 15.1433 134.963 15.04 134.643 15.04C134.269 15.04 133.989 15.1667 133.803 15.42C133.623 15.6667 133.533 16 133.533 16.42V19ZM139.039 16.93C139.046 17.0767 139.079 17.2133 139.139 17.34C139.206 17.46 139.293 17.5667 139.399 17.66C139.513 17.7467 139.639 17.8167 139.779 17.87C139.926 17.9167 140.079 17.94 140.239 17.94C140.553 17.94 140.793 17.8867 140.959 17.78C141.126 17.6667 141.246 17.5333 141.319 17.38L142.399 17.98C142.339 18.1067 142.256 18.24 142.149 18.38C142.043 18.5133 141.903 18.6367 141.729 18.75C141.563 18.8633 141.356 18.9567 141.109 19.03C140.869 19.1033 140.586 19.14 140.259 19.14C139.886 19.14 139.546 19.08 139.239 18.96C138.933 18.84 138.666 18.6667 138.439 18.44C138.219 18.2133 138.046 17.9367 137.919 17.61C137.799 17.2833 137.739 16.9133 137.739 16.5V16.44C137.739 16.06 137.803 15.7133 137.929 15.4C138.063 15.0867 138.243 14.82 138.469 14.6C138.696 14.38 138.959 14.21 139.259 14.09C139.566 13.9633 139.893 13.9 140.239 13.9C140.666 13.9 141.033 13.9767 141.339 14.13C141.646 14.2767 141.899 14.4667 142.099 14.7C142.299 14.9267 142.446 15.18 142.539 15.46C142.633 15.7333 142.679 16 142.679 16.26V16.93H139.039ZM140.229 15.04C139.909 15.04 139.649 15.1233 139.449 15.29C139.249 15.45 139.119 15.6367 139.059 15.85H141.399C141.359 15.6167 141.233 15.4233 141.019 15.27C140.813 15.1167 140.549 15.04 140.229 15.04Z" fill="#495567"/>
</g>
<path fill-rule="evenodd" clip-rule="evenodd" d="M29.5501 16.2326C30.5379 15.0264 32.2329 14.1001 33.6831 14C33.9262 15.649 33.2547 17.2641 32.3672 18.4058C31.4185 19.6324 29.7813 20.5807 28.1968 20.5315C27.9078 18.9521 28.649 17.3268 29.5501 16.2326ZM34.0165 20.5333C35.9466 20.5333 37.9903 21.5773 39.4446 23.3763C34.677 25.9705 35.4494 32.7283 40.2667 34.5378C39.6044 35.9952 39.2865 36.645 38.4325 37.936C37.241 39.7367 35.5631 41.9805 33.4803 41.9963C32.6241 42.0052 32.0624 41.7496 31.4568 41.474C30.7549 41.1545 29.9939 40.8082 28.647 40.8157C27.3076 40.8222 26.5345 41.1643 25.8229 41.4791C25.2017 41.7539 24.6274 42.008 23.7641 41.9998C21.6831 41.9823 20.0921 39.9574 18.9007 38.1567C15.5714 33.1242 15.2198 27.2159 17.2742 24.0734C18.7356 21.8418 21.0403 20.5368 23.2048 20.5368C24.3584 20.5368 25.2881 20.8657 26.1741 21.1791C26.9805 21.4643 27.7507 21.7367 28.6204 21.7367C29.4252 21.7367 30.0869 21.488 30.8086 21.2167C31.6745 20.8913 32.6268 20.5333 34.0165 20.5333Z" fill="#495567"/>
<rect x="177" width="182" height="56" rx="4" fill="#E5ECF4"/>
<g clip-path="url(#clip1_102_4626)">
<path d="M234.2 35.92H240.2V43H237.8V41.44H237.44C237.28 41.96 236.973 42.4 236.52 42.76C236.067 43.1067 235.387 43.28 234.48 43.28C233.84 43.28 233.24 43.16 232.68 42.92C232.12 42.68 231.633 42.3267 231.22 41.86C230.807 41.38 230.48 40.7933 230.24 40.1C230 39.3933 229.88 38.5733 229.88 37.64V34.36C229.88 33.4533 230.007 32.6533 230.26 31.96C230.527 31.2533 230.887 30.66 231.34 30.18C231.807 29.7 232.36 29.34 233 29.1C233.64 28.8467 234.347 28.72 235.12 28.72C235.92 28.72 236.633 28.8533 237.26 29.12C237.887 29.3733 238.42 29.7333 238.86 30.2C239.3 30.6533 239.633 31.1933 239.86 31.82C240.087 32.4333 240.2 33.0933 240.2 33.8V34.04H237.56V33.8C237.56 32.96 237.34 32.3267 236.9 31.9C236.473 31.46 235.867 31.24 235.08 31.24C234.333 31.24 233.72 31.4933 233.24 32C232.76 32.4933 232.52 33.3467 232.52 34.56V37.52C232.52 39.68 233.4 40.76 235.16 40.76C235.947 40.76 236.54 40.5533 236.94 40.14C237.353 39.7133 237.56 39.1467 237.56 38.44H234.2V35.92ZM251.633 38.16C251.633 38.9867 251.493 39.72 251.213 40.36C250.933 40.9867 250.553 41.52 250.073 41.96C249.593 42.3867 249.04 42.7133 248.413 42.94C247.8 43.1667 247.153 43.28 246.473 43.28C245.793 43.28 245.14 43.1667 244.513 42.94C243.9 42.7133 243.353 42.3867 242.873 41.96C242.393 41.52 242.013 40.9867 241.733 40.36C241.453 39.72 241.313 38.9867 241.313 38.16V37.92C241.313 37.1067 241.453 36.3867 241.733 35.76C242.013 35.12 242.393 34.58 242.873 34.14C243.353 33.7 243.9 33.3667 244.513 33.14C245.14 32.9133 245.793 32.8 246.473 32.8C247.153 32.8 247.8 32.9133 248.413 33.14C249.04 33.3667 249.593 33.7 250.073 34.14C250.553 34.58 250.933 35.12 251.213 35.76C251.493 36.3867 251.633 37.1067 251.633 37.92V38.16ZM246.473 40.88C246.833 40.88 247.173 40.82 247.493 40.7C247.813 40.58 248.093 40.4067 248.333 40.18C248.573 39.9533 248.76 39.68 248.893 39.36C249.04 39.0267 249.113 38.6533 249.113 38.24V37.84C249.113 37.4267 249.04 37.06 248.893 36.74C248.76 36.4067 248.573 36.1267 248.333 35.9C248.093 35.6733 247.813 35.5 247.493 35.38C247.173 35.26 246.833 35.2 246.473 35.2C246.113 35.2 245.773 35.26 245.453 35.38C245.133 35.5 244.853 35.6733 244.613 35.9C244.373 36.1267 244.18 36.4067 244.033 36.74C243.9 37.06 243.833 37.4267 243.833 37.84V38.24C243.833 38.6533 243.9 39.0267 244.033 39.36C244.18 39.68 244.373 39.9533 244.613 40.18C244.853 40.4067 245.133 40.58 245.453 40.7C245.773 40.82 246.113 40.88 246.473 40.88ZM262.986 38.16C262.986 38.9867 262.846 39.72 262.566 40.36C262.286 40.9867 261.906 41.52 261.426 41.96C260.946 42.3867 260.393 42.7133 259.766 42.94C259.153 43.1667 258.506 43.28 257.826 43.28C257.146 43.28 256.493 43.1667 255.866 42.94C255.253 42.7133 254.706 42.3867 254.226 41.96C253.746 41.52 253.366 40.9867 253.086 40.36C252.806 39.72 252.666 38.9867 252.666 38.16V37.92C252.666 37.1067 252.806 36.3867 253.086 35.76C253.366 35.12 253.746 34.58 254.226 34.14C254.706 33.7 255.253 33.3667 255.866 33.14C256.493 32.9133 257.146 32.8 257.826 32.8C258.506 32.8 259.153 32.9133 259.766 33.14C260.393 33.3667 260.946 33.7 261.426 34.14C261.906 34.58 262.286 35.12 262.566 35.76C262.846 36.3867 262.986 37.1067 262.986 37.92V38.16ZM257.826 40.88C258.186 40.88 258.526 40.82 258.846 40.7C259.166 40.58 259.446 40.4067 259.686 40.18C259.926 39.9533 260.113 39.68 260.246 39.36C260.393 39.0267 260.466 38.6533 260.466 38.24V37.84C260.466 37.4267 260.393 37.06 260.246 36.74C260.113 36.4067 259.926 36.1267 259.686 35.9C259.446 35.6733 259.166 35.5 258.846 35.38C258.526 35.26 258.186 35.2 257.826 35.2C257.466 35.2 257.126 35.26 256.806 35.38C256.486 35.5 256.206 35.6733 255.966 35.9C255.726 36.1267 255.533 36.4067 255.386 36.74C255.253 37.06 255.186 37.4267 255.186 37.84V38.24C255.186 38.6533 255.253 39.0267 255.386 39.36C255.533 39.68 255.726 39.9533 255.966 40.18C256.206 40.4067 256.486 40.58 256.806 40.7C257.126 40.82 257.466 40.88 257.826 40.88ZM271.7 41.56H271.34C271.233 41.7867 271.1 42.0067 270.94 42.22C270.793 42.42 270.593 42.6 270.34 42.76C270.1 42.92 269.806 43.0467 269.46 43.14C269.126 43.2333 268.72 43.28 268.24 43.28C267.626 43.28 267.053 43.1733 266.52 42.96C266 42.7333 265.54 42.4067 265.14 41.98C264.753 41.54 264.446 41.0067 264.22 40.38C264.006 39.7533 263.9 39.0333 263.9 38.22V37.86C263.9 37.06 264.013 36.3467 264.24 35.72C264.48 35.0933 264.8 34.5667 265.2 34.14C265.613 33.7 266.086 33.3667 266.62 33.14C267.166 32.9133 267.74 32.8 268.34 32.8C269.14 32.8 269.773 32.9533 270.24 33.26C270.706 33.5533 271.073 33.9733 271.34 34.52H271.7V33.08H274.22V45.44C274.22 45.8933 274.073 46.2667 273.78 46.56C273.5 46.8533 273.133 47 272.68 47H266V44.6H271.16C271.52 44.6 271.7 44.4 271.7 44V41.56ZM269.06 40.88C269.846 40.88 270.48 40.6333 270.96 40.14C271.453 39.6333 271.7 38.9733 271.7 38.16V37.92C271.7 37.1067 271.453 36.4533 270.96 35.96C270.48 35.4533 269.846 35.2 269.06 35.2C268.273 35.2 267.633 35.4467 267.14 35.94C266.66 36.42 266.42 37.08 266.42 37.92V38.16C266.42 39 266.66 39.6667 267.14 40.16C267.633 40.64 268.273 40.88 269.06 40.88ZM275.913 40.6H279.393V31.4H276.033V29H281.913V40.6H285.153V43H275.913V40.6ZM289.546 38.86C289.56 39.1533 289.626 39.4267 289.746 39.68C289.88 39.92 290.053 40.1333 290.266 40.32C290.493 40.4933 290.746 40.6333 291.026 40.74C291.32 40.8333 291.626 40.88 291.946 40.88C292.573 40.88 293.053 40.7733 293.386 40.56C293.72 40.3333 293.96 40.0667 294.106 39.76L296.266 40.96C296.146 41.2133 295.98 41.48 295.766 41.76C295.553 42.0267 295.273 42.2733 294.926 42.5C294.593 42.7267 294.18 42.9133 293.686 43.06C293.206 43.2067 292.64 43.28 291.986 43.28C291.24 43.28 290.56 43.16 289.946 42.92C289.333 42.68 288.8 42.3333 288.346 41.88C287.906 41.4267 287.56 40.8733 287.306 40.22C287.066 39.5667 286.946 38.8267 286.946 38V37.88C286.946 37.12 287.073 36.4267 287.326 35.8C287.593 35.1733 287.953 34.64 288.406 34.2C288.86 33.76 289.386 33.42 289.986 33.18C290.6 32.9267 291.253 32.8 291.946 32.8C292.8 32.8 293.533 32.9533 294.146 33.26C294.76 33.5533 295.266 33.9333 295.666 34.4C296.066 34.8533 296.36 35.36 296.546 35.92C296.733 36.4667 296.826 37 296.826 37.52V38.86H289.546ZM291.926 35.08C291.286 35.08 290.766 35.2467 290.366 35.58C289.966 35.9 289.706 36.2733 289.586 36.7H294.266C294.186 36.2333 293.933 35.8467 293.506 35.54C293.093 35.2333 292.566 35.08 291.926 35.08ZM301.199 37.72V43H298.559V29H304.039C304.759 29 305.386 29.12 305.919 29.36C306.453 29.5867 306.893 29.8933 307.239 30.28C307.599 30.6533 307.866 31.0867 308.039 31.58C308.226 32.06 308.319 32.5533 308.319 33.06V33.54C308.319 34.06 308.226 34.5733 308.039 35.08C307.866 35.5733 307.599 36.02 307.239 36.42C306.893 36.8067 306.453 37.12 305.919 37.36C305.386 37.6 304.759 37.72 304.039 37.72H301.199ZM301.199 35.2H303.779C304.366 35.2 304.826 35.04 305.159 34.72C305.506 34.4 305.679 33.9867 305.679 33.48V33.24C305.679 32.7333 305.506 32.32 305.159 32C304.826 31.68 304.366 31.52 303.779 31.52H301.199V35.2ZM309.973 40.6H313.453V31.4H310.093V29H315.973V40.6H319.213V43H309.973V40.6ZM327.806 41.56C327.539 42.1867 327.166 42.6333 326.686 42.9C326.206 43.1533 325.646 43.28 325.006 43.28C324.406 43.28 323.839 43.1667 323.306 42.94C322.786 42.7133 322.326 42.38 321.926 41.94C321.526 41.5 321.206 40.9667 320.966 40.34C320.739 39.7133 320.626 39 320.626 38.2V37.88C320.626 37.0933 320.739 36.3867 320.966 35.76C321.193 35.1333 321.499 34.6 321.886 34.16C322.273 33.72 322.719 33.3867 323.226 33.16C323.746 32.92 324.299 32.8 324.886 32.8C325.593 32.8 326.159 32.92 326.586 33.16C327.026 33.4 327.373 33.7733 327.626 34.28H327.986V33.08H330.506V40C330.506 40.4 330.686 40.6 331.046 40.6H331.426V43H329.706C329.253 43 328.879 42.8667 328.586 42.6C328.306 42.3333 328.166 41.9867 328.166 41.56H327.806ZM325.566 40.88C326.299 40.88 326.886 40.64 327.326 40.16C327.766 39.6667 327.986 39 327.986 38.16V37.92C327.986 37.08 327.766 36.42 327.326 35.94C326.886 35.4467 326.299 35.2 325.566 35.2C324.833 35.2 324.246 35.4467 323.806 35.94C323.366 36.42 323.146 37.08 323.146 37.92V38.16C323.146 39 323.366 39.6667 323.806 40.16C324.246 40.64 324.833 40.88 325.566 40.88ZM339.459 33.08H341.979V45.44C341.979 45.8933 341.832 46.2667 341.539 46.56C341.259 46.8533 340.892 47 340.439 47H334.539V44.6H338.919C339.279 44.6 339.459 44.4 339.459 44V41.56H339.099C338.659 42.7067 337.712 43.28 336.259 43.28C335.766 43.28 335.306 43.2 334.879 43.04C334.452 42.88 334.079 42.6333 333.759 42.3C333.439 41.9667 333.186 41.5533 332.999 41.06C332.826 40.5533 332.739 39.96 332.739 39.28V33.08H335.259V38.76C335.259 39.4667 335.426 40.02 335.759 40.42C336.092 40.8067 336.592 41 337.259 41C338.019 41 338.572 40.76 338.919 40.28C339.279 39.7867 339.459 39.12 339.459 38.28V33.08Z" fill="#495567"/>
<path d="M231.6 15.46H234.6V19H233.4V18.22H233.22C233.14 18.48 232.987 18.7 232.76 18.88C232.533 19.0533 232.193 19.14 231.74 19.14C231.42 19.14 231.12 19.08 230.84 18.96C230.56 18.84 230.317 18.6633 230.11 18.43C229.903 18.19 229.74 17.8967 229.62 17.55C229.5 17.1967 229.44 16.7867 229.44 16.32V14.68C229.44 14.2267 229.503 13.8267 229.63 13.48C229.763 13.1267 229.943 12.83 230.17 12.59C230.403 12.35 230.68 12.17 231 12.05C231.32 11.9233 231.673 11.86 232.06 11.86C232.46 11.86 232.817 11.9267 233.13 12.06C233.443 12.1867 233.71 12.3667 233.93 12.6C234.15 12.8267 234.317 13.0967 234.43 13.41C234.543 13.7167 234.6 14.0467 234.6 14.4V14.52H233.28V14.4C233.28 13.98 233.17 13.6633 232.95 13.45C232.737 13.23 232.433 13.12 232.04 13.12C231.667 13.12 231.36 13.2467 231.12 13.5C230.88 13.7467 230.76 14.1733 230.76 14.78V16.26C230.76 17.34 231.2 17.88 232.08 17.88C232.473 17.88 232.77 17.7767 232.97 17.57C233.177 17.3567 233.28 17.0733 233.28 16.72H231.6V15.46ZM236.567 16.93C236.573 17.0767 236.607 17.2133 236.667 17.34C236.733 17.46 236.82 17.5667 236.927 17.66C237.04 17.7467 237.167 17.8167 237.307 17.87C237.453 17.9167 237.607 17.94 237.767 17.94C238.08 17.94 238.32 17.8867 238.487 17.78C238.653 17.6667 238.773 17.5333 238.847 17.38L239.927 17.98C239.867 18.1067 239.783 18.24 239.677 18.38C239.57 18.5133 239.43 18.6367 239.257 18.75C239.09 18.8633 238.883 18.9567 238.637 19.03C238.397 19.1033 238.113 19.14 237.787 19.14C237.413 19.14 237.073 19.08 236.767 18.96C236.46 18.84 236.193 18.6667 235.967 18.44C235.747 18.2133 235.573 17.9367 235.447 17.61C235.327 17.2833 235.267 16.9133 235.267 16.5V16.44C235.267 16.06 235.33 15.7133 235.457 15.4C235.59 15.0867 235.77 14.82 235.997 14.6C236.223 14.38 236.487 14.21 236.787 14.09C237.093 13.9633 237.42 13.9 237.767 13.9C238.193 13.9 238.56 13.9767 238.867 14.13C239.173 14.2767 239.427 14.4667 239.627 14.7C239.827 14.9267 239.973 15.18 240.067 15.46C240.16 15.7333 240.207 16 240.207 16.26V16.93H236.567ZM237.757 15.04C237.437 15.04 237.177 15.1233 236.977 15.29C236.777 15.45 236.647 15.6367 236.587 15.85H238.927C238.887 15.6167 238.76 15.4233 238.547 15.27C238.34 15.1167 238.077 15.04 237.757 15.04ZM240.993 14.04H242.463V12H243.723V14.04H245.513V15.24H243.723V17.5C243.723 17.7 243.813 17.8 243.993 17.8H245.333V19H243.233C243.007 19 242.82 18.9267 242.673 18.78C242.533 18.6333 242.463 18.4467 242.463 18.22V15.24H240.993V14.04ZM252.576 17.8H254.256V15.24H252.696V14.04H255.516V17.8H256.956V19H252.576V17.8ZM255.826 12.57C255.826 12.7033 255.8 12.83 255.746 12.95C255.7 13.0633 255.633 13.1633 255.546 13.25C255.46 13.33 255.356 13.3967 255.236 13.45C255.123 13.4967 255.003 13.52 254.876 13.52C254.743 13.52 254.62 13.4967 254.506 13.45C254.393 13.3967 254.293 13.33 254.206 13.25C254.12 13.1633 254.05 13.0633 253.996 12.95C253.95 12.83 253.926 12.7033 253.926 12.57C253.926 12.4367 253.95 12.3133 253.996 12.2C254.05 12.08 254.12 11.98 254.206 11.9C254.293 11.8133 254.393 11.7467 254.506 11.7C254.62 11.6467 254.743 11.62 254.876 11.62C255.003 11.62 255.123 11.6467 255.236 11.7C255.356 11.7467 255.46 11.8133 255.546 11.9C255.633 11.98 255.7 12.08 255.746 12.2C255.8 12.3133 255.826 12.4367 255.826 12.57ZM258.023 14.04H259.493V12H260.753V14.04H262.543V15.24H260.753V17.5C260.753 17.7 260.843 17.8 261.023 17.8H262.363V19H260.263C260.036 19 259.85 18.9267 259.703 18.78C259.563 18.6333 259.493 18.4467 259.493 18.22V15.24H258.023V14.04ZM274.376 16.58C274.376 16.9933 274.306 17.36 274.166 17.68C274.026 17.9933 273.836 18.26 273.596 18.48C273.356 18.6933 273.08 18.8567 272.766 18.97C272.46 19.0833 272.136 19.14 271.796 19.14C271.456 19.14 271.13 19.0833 270.816 18.97C270.51 18.8567 270.236 18.6933 269.996 18.48C269.756 18.26 269.566 17.9933 269.426 17.68C269.286 17.36 269.216 16.9933 269.216 16.58V16.46C269.216 16.0533 269.286 15.6933 269.426 15.38C269.566 15.06 269.756 14.79 269.996 14.57C270.236 14.35 270.51 14.1833 270.816 14.07C271.13 13.9567 271.456 13.9 271.796 13.9C272.136 13.9 272.46 13.9567 272.766 14.07C273.08 14.1833 273.356 14.35 273.596 14.57C273.836 14.79 274.026 15.06 274.166 15.38C274.306 15.6933 274.376 16.0533 274.376 16.46V16.58ZM271.796 17.94C271.976 17.94 272.146 17.91 272.306 17.85C272.466 17.79 272.606 17.7033 272.726 17.59C272.846 17.4767 272.94 17.34 273.006 17.18C273.08 17.0133 273.116 16.8267 273.116 16.62V16.42C273.116 16.2133 273.08 16.03 273.006 15.87C272.94 15.7033 272.846 15.5633 272.726 15.45C272.606 15.3367 272.466 15.25 272.306 15.19C272.146 15.13 271.976 15.1 271.796 15.1C271.616 15.1 271.446 15.13 271.286 15.19C271.126 15.25 270.986 15.3367 270.866 15.45C270.746 15.5633 270.65 15.7033 270.576 15.87C270.51 16.03 270.476 16.2133 270.476 16.42V16.62C270.476 16.8267 270.51 17.0133 270.576 17.18C270.65 17.34 270.746 17.4767 270.866 17.59C270.986 17.7033 271.126 17.79 271.286 17.85C271.446 17.91 271.616 17.94 271.796 17.94ZM276.453 19H275.193V14.04H276.453V14.78H276.633C276.746 14.5 276.93 14.2833 277.183 14.13C277.436 13.9767 277.733 13.9 278.073 13.9C278.313 13.9 278.536 13.94 278.743 14.02C278.956 14.0933 279.143 14.21 279.303 14.37C279.463 14.53 279.586 14.7333 279.673 14.98C279.766 15.2267 279.813 15.52 279.813 15.86V19H278.553V16.18C278.553 15.8267 278.466 15.55 278.293 15.35C278.126 15.1433 277.883 15.04 277.563 15.04C277.19 15.04 276.91 15.1667 276.723 15.42C276.543 15.6667 276.453 16 276.453 16.42V19Z" fill="#495567"/>
</g>
<path fill-rule="evenodd" clip-rule="evenodd" d="M194.352 14.2371C195.077 13.8877 195.908 13.9252 196.605 14.3449L210.477 22.423L206.504 26.4147L194.352 14.2371ZM193 16.4214C193 16.0498 193.082 15.6887 193.236 15.3641L205.385 27.5391L193.238 39.7437C193.083 39.426 193 39.0702 193 38.697V16.4214ZM206.506 28.6619L194.373 40.8517C194.695 41.0008 195.038 41.0658 195.38 41.0658C195.802 41.0658 196.224 40.9648 196.605 40.7354L210.48 32.6452L206.506 28.6619ZM215.746 25.4907C215.75 25.4933 215.756 25.4965 215.76 25.4996C216.477 25.9342 216.904 26.6944 216.904 27.5328C216.904 28.3712 216.477 29.1314 215.76 29.5664C215.756 29.5691 211.897 31.8189 211.897 31.8189L207.624 27.5375L211.894 23.2477L215.746 25.4907Z" fill="#495567"/>
<defs>
<clipPath id="clip0_102_4626">
<rect width="91" height="39" fill="white" transform="translate(52 8)"/>
</clipPath>
<clipPath id="clip1_102_4626">
<rect width="114" height="39" fill="white" transform="translate(229 8)"/>
</clipPath>
</defs>
</svg>
